<mxfile host="Electron" agent="Mozilla/5.0 (Windows NT 10.0; Win64; x64) AppleWebKit/537.36 (KHTML, like Gecko) draw.io/26.2.2 Chrome/134.0.6998.178 Electron/35.1.2 Safari/537.36" version="26.2.2">
  <diagram name="Page-1" id="VizVTErpn3KlSkKp4W6e">
    <mxGraphModel dx="2575" dy="3831" grid="1" gridSize="10" guides="1" tooltips="1" connect="1" arrows="1" fold="1" page="1" pageScale="1" pageWidth="1654" pageHeight="2336" math="0" shadow="0">
      <root>
        <mxCell id="0" />
        <mxCell id="1" parent="0" />
        <mxCell id="SPgLSMUmqTFrktkxUFNP-47" value="&lt;b&gt;&lt;font style=&quot;font-size: 18px;&quot;&gt;etudiant&lt;/font&gt;&lt;/b&gt;" style="shape=umlActor;verticalLabelPosition=bottom;verticalAlign=top;html=1;" parent="1" vertex="1">
          <mxGeometry x="110" y="-590" width="110" height="140" as="geometry" />
        </mxCell>
        <mxCell id="SPgLSMUmqTFrktkxUFNP-9" value="" style="swimlane;startSize=0;" parent="1" vertex="1">
          <mxGeometry x="440" y="-1090" width="1170" height="1070" as="geometry" />
        </mxCell>
        <mxCell id="SPgLSMUmqTFrktkxUFNP-10" value="&lt;font style=&quot;font-size: 18px;&quot;&gt;&lt;b&gt;s&#39;inscrire&lt;/b&gt;&lt;/font&gt;" style="shape=ellipse;container=1;horizontal=1;horizontalStack=0;resizeParent=1;resizeParentMax=0;resizeLast=0;html=1;dashed=0;collapsible=0;" parent="SPgLSMUmqTFrktkxUFNP-9" vertex="1">
          <mxGeometry x="337" y="110" width="213" height="120" as="geometry" />
        </mxCell>
        <mxCell id="SPgLSMUmqTFrktkxUFNP-17" value="&lt;font style=&quot;font-size: 18px;&quot;&gt;&lt;b style=&quot;&quot;&gt;consulter categorie/&amp;nbsp;&lt;/b&gt;&lt;/font&gt;&lt;div&gt;&lt;font size=&quot;3&quot;&gt;&lt;b&gt;sous categorie&lt;/b&gt;&lt;/font&gt;&lt;/div&gt;" style="shape=ellipse;container=1;horizontal=1;horizontalStack=0;resizeParent=1;resizeParentMax=0;resizeLast=0;html=1;dashed=0;collapsible=0;" parent="SPgLSMUmqTFrktkxUFNP-9" vertex="1">
          <mxGeometry x="300" y="265" width="230" height="120" as="geometry" />
        </mxCell>
        <mxCell id="SPgLSMUmqTFrktkxUFNP-18" value="&lt;font style=&quot;font-size: 18px;&quot;&gt;&lt;b&gt;suivre categorie/&amp;nbsp;&lt;/b&gt;&lt;/font&gt;&lt;div&gt;&lt;font size=&quot;3&quot;&gt;&lt;b&gt;sous categorie&lt;/b&gt;&lt;/font&gt;&lt;/div&gt;" style="shape=ellipse;container=1;horizontal=1;horizontalStack=0;resizeParent=1;resizeParentMax=0;resizeLast=0;html=1;dashed=0;collapsible=0;" parent="SPgLSMUmqTFrktkxUFNP-9" vertex="1">
          <mxGeometry x="190" y="399" width="220" height="120" as="geometry" />
        </mxCell>
        <mxCell id="SPgLSMUmqTFrktkxUFNP-19" value="&lt;b&gt;&lt;font style=&quot;font-size: 18px;&quot;&gt;publier&lt;/font&gt;&lt;/b&gt;&lt;div&gt;&lt;b&gt;&lt;font style=&quot;font-size: 18px;&quot;&gt;&amp;nbsp;une publication&lt;/font&gt;&lt;/b&gt;&lt;/div&gt;" style="shape=ellipse;container=1;horizontal=1;horizontalStack=0;resizeParent=1;resizeParentMax=0;resizeLast=0;html=1;dashed=0;collapsible=0;" parent="SPgLSMUmqTFrktkxUFNP-9" vertex="1">
          <mxGeometry x="300" y="530" width="200" height="120" as="geometry" />
        </mxCell>
        <mxCell id="SPgLSMUmqTFrktkxUFNP-20" value="&lt;font style=&quot;font-size: 18px;&quot;&gt;&lt;b&gt;consulter&lt;/b&gt;&lt;/font&gt;&lt;div&gt;&lt;font style=&quot;font-size: 18px;&quot;&gt;&lt;b&gt;&amp;nbsp;une publication&lt;/b&gt;&lt;/font&gt;&lt;/div&gt;" style="shape=ellipse;container=1;horizontal=1;horizontalStack=0;resizeParent=1;resizeParentMax=0;resizeLast=0;html=1;dashed=0;collapsible=0;" parent="SPgLSMUmqTFrktkxUFNP-9" vertex="1">
          <mxGeometry x="300" y="660" width="180" height="120" as="geometry" />
        </mxCell>
        <mxCell id="SPgLSMUmqTFrktkxUFNP-43" value="&lt;b&gt;&lt;font style=&quot;font-size: 18px;&quot;&gt;s&#39;authentifier&lt;/font&gt;&lt;/b&gt;" style="shape=ellipse;container=1;horizontal=1;horizontalStack=0;resizeParent=1;resizeParentMax=0;resizeLast=0;html=1;dashed=0;collapsible=0;" parent="SPgLSMUmqTFrktkxUFNP-9" vertex="1">
          <mxGeometry x="990" y="510" width="180" height="120" as="geometry" />
        </mxCell>
        <mxCell id="njjB-d-d2yw97Rpttcdp-1" value="&lt;b&gt;&lt;font style=&quot;font-size: 18px;&quot;&gt;noter&lt;/font&gt;&lt;/b&gt;&lt;div&gt;&lt;b&gt;&lt;font style=&quot;font-size: 18px;&quot;&gt;&amp;nbsp;une publication&lt;/font&gt;&lt;/b&gt;&lt;/div&gt;" style="shape=ellipse;container=1;horizontal=1;horizontalStack=0;resizeParent=1;resizeParentMax=0;resizeLast=0;html=1;dashed=0;collapsible=0;" parent="SPgLSMUmqTFrktkxUFNP-9" vertex="1">
          <mxGeometry x="470" y="810" width="180" height="120" as="geometry" />
        </mxCell>
        <mxCell id="njjB-d-d2yw97Rpttcdp-2" value="&lt;font style=&quot;font-size: 18px;&quot;&gt;&lt;b&gt;&amp;lt;&amp;lt;extends&amp;gt;&amp;gt;&lt;/b&gt;&lt;/font&gt;" style="endArrow=open;startArrow=none;endFill=0;startFill=0;endSize=8;html=1;verticalAlign=bottom;dashed=1;labelBackgroundColor=none;rounded=0;exitX=0.5;exitY=0;exitDx=0;exitDy=0;entryX=0.049;entryY=0.754;entryDx=0;entryDy=0;entryPerimeter=0;" parent="SPgLSMUmqTFrktkxUFNP-9" source="SPgLSMUmqTFrktkxUFNP-21" target="SPgLSMUmqTFrktkxUFNP-20" edge="1">
          <mxGeometry x="-0.2233" y="60" width="160" relative="1" as="geometry">
            <mxPoint x="188.42000000000007" y="795.5999999999999" as="sourcePoint" />
            <mxPoint x="350" y="759" as="targetPoint" />
            <mxPoint as="offset" />
          </mxGeometry>
        </mxCell>
        <mxCell id="njjB-d-d2yw97Rpttcdp-3" value="&lt;font style=&quot;font-size: 18px;&quot;&gt;&lt;b&gt;&amp;lt;&amp;lt;extends&amp;gt;&amp;gt;&lt;/b&gt;&lt;/font&gt;" style="endArrow=open;startArrow=none;endFill=0;startFill=0;endSize=8;html=1;verticalAlign=bottom;dashed=1;labelBackgroundColor=none;rounded=0;exitX=0.187;exitY=0.149;exitDx=0;exitDy=0;exitPerimeter=0;entryX=0.898;entryY=0.853;entryDx=0;entryDy=0;entryPerimeter=0;" parent="SPgLSMUmqTFrktkxUFNP-9" source="njjB-d-d2yw97Rpttcdp-1" target="SPgLSMUmqTFrktkxUFNP-20" edge="1">
          <mxGeometry x="-0.9011" y="-46" width="160" relative="1" as="geometry">
            <mxPoint x="349.5" y="807" as="sourcePoint" />
            <mxPoint x="460" y="770" as="targetPoint" />
            <mxPoint as="offset" />
          </mxGeometry>
        </mxCell>
        <mxCell id="njjB-d-d2yw97Rpttcdp-4" value="&lt;font style=&quot;font-size: 18px;&quot;&gt;&lt;b&gt;recevoir&lt;/b&gt;&lt;/font&gt;&lt;div&gt;&lt;font size=&quot;3&quot; style=&quot;&quot;&gt;&lt;b&gt;&amp;nbsp;les notifications&lt;/b&gt;&lt;/font&gt;&lt;/div&gt;" style="shape=ellipse;container=1;horizontal=1;horizontalStack=0;resizeParent=1;resizeParentMax=0;resizeLast=0;html=1;dashed=0;collapsible=0;" parent="SPgLSMUmqTFrktkxUFNP-9" vertex="1">
          <mxGeometry x="500" y="380" width="210" height="120" as="geometry" />
        </mxCell>
        <mxCell id="njjB-d-d2yw97Rpttcdp-5" value="&lt;font style=&quot;font-size: 18px;&quot;&gt;&lt;b&gt;&amp;lt;&amp;lt;extends&amp;gt;&amp;gt;&lt;/b&gt;&lt;/font&gt;" style="endArrow=open;startArrow=none;endFill=0;startFill=0;endSize=8;html=1;verticalAlign=bottom;dashed=1;labelBackgroundColor=none;rounded=0;exitX=0;exitY=0.5;exitDx=0;exitDy=0;entryX=1;entryY=0.5;entryDx=0;entryDy=0;" parent="SPgLSMUmqTFrktkxUFNP-9" source="njjB-d-d2yw97Rpttcdp-4" edge="1">
          <mxGeometry width="160" relative="1" as="geometry">
            <mxPoint x="470" y="497" as="sourcePoint" />
            <mxPoint x="410" y="460" as="targetPoint" />
            <Array as="points" />
          </mxGeometry>
        </mxCell>
        <mxCell id="njjB-d-d2yw97Rpttcdp-7" value="&lt;font style=&quot;font-size: 18px;&quot;&gt;&lt;b&gt;&amp;lt;&amp;lt;include&amp;gt;&amp;gt;&lt;/b&gt;&lt;/font&gt;" style="endArrow=open;startArrow=none;endFill=0;startFill=0;endSize=8;html=1;verticalAlign=bottom;dashed=1;labelBackgroundColor=none;rounded=0;entryX=0.727;entryY=0.056;entryDx=0;entryDy=0;entryPerimeter=0;exitX=1;exitY=0.667;exitDx=0;exitDy=0;exitPerimeter=0;" parent="SPgLSMUmqTFrktkxUFNP-9" source="SPgLSMUmqTFrktkxUFNP-17" target="SPgLSMUmqTFrktkxUFNP-43" edge="1">
          <mxGeometry x="0.098" y="20" width="160" relative="1" as="geometry">
            <mxPoint x="530" y="169" as="sourcePoint" />
            <mxPoint x="981" y="608" as="targetPoint" />
            <mxPoint as="offset" />
          </mxGeometry>
        </mxCell>
        <mxCell id="njjB-d-d2yw97Rpttcdp-10" value="&lt;font style=&quot;font-size: 18px;&quot;&gt;&lt;b&gt;&amp;lt;&amp;lt;include&amp;gt;&amp;gt;&lt;/b&gt;&lt;/font&gt;" style="endArrow=open;startArrow=none;endFill=0;startFill=0;endSize=8;html=1;verticalAlign=bottom;dashed=1;labelBackgroundColor=none;rounded=0;exitX=1;exitY=0.5;exitDx=0;exitDy=0;" parent="SPgLSMUmqTFrktkxUFNP-9" source="SPgLSMUmqTFrktkxUFNP-19" target="SPgLSMUmqTFrktkxUFNP-43" edge="1">
          <mxGeometry width="160" relative="1" as="geometry">
            <mxPoint x="410" y="504" as="sourcePoint" />
            <mxPoint x="930" y="679" as="targetPoint" />
          </mxGeometry>
        </mxCell>
        <mxCell id="njjB-d-d2yw97Rpttcdp-11" value="&lt;b&gt;&lt;font style=&quot;font-size: 18px;&quot;&gt;&amp;lt;&amp;lt;include&amp;gt;&amp;gt;&lt;/font&gt;&lt;/b&gt;" style="endArrow=open;startArrow=none;endFill=0;startFill=0;endSize=8;html=1;verticalAlign=bottom;dashed=1;labelBackgroundColor=none;rounded=0;exitX=1.004;exitY=0.621;exitDx=0;exitDy=0;exitPerimeter=0;" parent="SPgLSMUmqTFrktkxUFNP-9" source="SPgLSMUmqTFrktkxUFNP-20" target="SPgLSMUmqTFrktkxUFNP-43" edge="1">
          <mxGeometry x="-0.088" y="11" width="160" relative="1" as="geometry">
            <mxPoint x="420" y="514" as="sourcePoint" />
            <mxPoint x="940" y="689" as="targetPoint" />
            <mxPoint x="-1" as="offset" />
          </mxGeometry>
        </mxCell>
        <mxCell id="njjB-d-d2yw97Rpttcdp-9" value="&lt;font style=&quot;font-size: 18px;&quot;&gt;&lt;b&gt;&amp;lt;&amp;lt;include&amp;gt;&amp;gt;&lt;/b&gt;&lt;/font&gt;" style="endArrow=open;startArrow=none;endFill=0;startFill=0;endSize=8;html=1;verticalAlign=bottom;dashed=1;labelBackgroundColor=none;rounded=0;exitX=0.943;exitY=0.795;exitDx=0;exitDy=0;exitPerimeter=0;entryX=0.086;entryY=0.208;entryDx=0;entryDy=0;entryPerimeter=0;" parent="SPgLSMUmqTFrktkxUFNP-9" source="SPgLSMUmqTFrktkxUFNP-18" target="SPgLSMUmqTFrktkxUFNP-43" edge="1">
          <mxGeometry width="160" relative="1" as="geometry">
            <mxPoint x="416" y="228" as="sourcePoint" />
            <mxPoint x="840" y="659" as="targetPoint" />
          </mxGeometry>
        </mxCell>
        <mxCell id="v7yCUGAugjOf5b9RYt0d-2" value="&lt;font style=&quot;font-size: 24px;&quot;&gt;&lt;b&gt;Systeme de partage de contenu pedagogique&lt;/b&gt;&lt;/font&gt;" style="text;html=1;align=center;verticalAlign=middle;resizable=0;points=[];autosize=1;strokeColor=none;fillColor=none;" parent="SPgLSMUmqTFrktkxUFNP-9" vertex="1">
          <mxGeometry x="260" y="10" width="540" height="40" as="geometry" />
        </mxCell>
        <mxCell id="SPgLSMUmqTFrktkxUFNP-21" value="&lt;font style=&quot;font-size: 18px;&quot;&gt;&lt;b&gt;ajouter&amp;nbsp;&lt;/b&gt;&lt;/font&gt;&lt;div&gt;&lt;font style=&quot;font-size: 18px;&quot;&gt;&lt;b&gt;un commentaire&lt;/b&gt;&lt;/font&gt;&lt;/div&gt;" style="shape=ellipse;container=1;horizontal=1;horizontalStack=0;resizeParent=1;resizeParentMax=0;resizeLast=0;html=1;dashed=0;collapsible=0;" parent="SPgLSMUmqTFrktkxUFNP-9" vertex="1">
          <mxGeometry x="220" y="830" width="180" height="120" as="geometry" />
        </mxCell>
        <mxCell id="njjB-d-d2yw97Rpttcdp-27" value="" style="endArrow=none;html=1;rounded=0;entryX=0;entryY=0.369;entryDx=0;entryDy=0;entryPerimeter=0;exitX=0.5;exitY=0;exitDx=0;exitDy=0;exitPerimeter=0;" parent="1" source="SPgLSMUmqTFrktkxUFNP-47" target="SPgLSMUmqTFrktkxUFNP-10" edge="1">
          <mxGeometry width="50" height="50" relative="1" as="geometry">
            <mxPoint x="20" y="210" as="sourcePoint" />
            <mxPoint x="380" y="-380" as="targetPoint" />
          </mxGeometry>
        </mxCell>
        <mxCell id="njjB-d-d2yw97Rpttcdp-28" value="" style="endArrow=none;html=1;rounded=0;entryX=0;entryY=0.5;entryDx=0;entryDy=0;exitX=0.75;exitY=0.1;exitDx=0;exitDy=0;exitPerimeter=0;" parent="1" source="SPgLSMUmqTFrktkxUFNP-47" target="SPgLSMUmqTFrktkxUFNP-17" edge="1">
          <mxGeometry width="50" height="50" relative="1" as="geometry">
            <mxPoint x="360" y="240" as="sourcePoint" />
            <mxPoint x="620" y="-636" as="targetPoint" />
          </mxGeometry>
        </mxCell>
        <mxCell id="njjB-d-d2yw97Rpttcdp-29" value="" style="endArrow=none;html=1;rounded=0;entryX=0;entryY=0.5;entryDx=0;entryDy=0;exitX=0.75;exitY=0.1;exitDx=0;exitDy=0;exitPerimeter=0;" parent="1" source="SPgLSMUmqTFrktkxUFNP-47" target="SPgLSMUmqTFrktkxUFNP-18" edge="1">
          <mxGeometry width="50" height="50" relative="1" as="geometry">
            <mxPoint x="243" y="4" as="sourcePoint" />
            <mxPoint x="620" y="-490" as="targetPoint" />
          </mxGeometry>
        </mxCell>
        <mxCell id="njjB-d-d2yw97Rpttcdp-30" value="" style="endArrow=none;html=1;rounded=0;entryX=0;entryY=0.5;entryDx=0;entryDy=0;" parent="1" target="SPgLSMUmqTFrktkxUFNP-19" edge="1">
          <mxGeometry width="50" height="50" relative="1" as="geometry">
            <mxPoint x="170" y="-520" as="sourcePoint" />
            <mxPoint x="579" y="-313" as="targetPoint" />
          </mxGeometry>
        </mxCell>
        <mxCell id="njjB-d-d2yw97Rpttcdp-31" value="" style="endArrow=none;html=1;rounded=0;entryX=0.027;entryY=0.271;entryDx=0;entryDy=0;exitX=0.736;exitY=0.207;exitDx=0;exitDy=0;exitPerimeter=0;entryPerimeter=0;" parent="1" source="SPgLSMUmqTFrktkxUFNP-47" target="SPgLSMUmqTFrktkxUFNP-20" edge="1">
          <mxGeometry width="50" height="50" relative="1" as="geometry">
            <mxPoint x="253" y="14" as="sourcePoint" />
            <mxPoint x="620" y="-220" as="targetPoint" />
          </mxGeometry>
        </mxCell>
        <mxCell id="v7yCUGAugjOf5b9RYt0d-1" style="edgeStyle=orthogonalEdgeStyle;rounded=0;orthogonalLoop=1;jettySize=auto;html=1;exitX=0.5;exitY=0.5;exitDx=0;exitDy=0;exitPerimeter=0;entryX=0.508;entryY=0.224;entryDx=0;entryDy=0;entryPerimeter=0;" parent="1" source="SPgLSMUmqTFrktkxUFNP-47" target="SPgLSMUmqTFrktkxUFNP-47" edge="1">
          <mxGeometry relative="1" as="geometry" />
        </mxCell>
      </root>
    </mxGraphModel>
  </diagram>
</mxfile>
